# xmcd
#
# Track frame offsets:
#	150
#	14986
#	29543
#	44665
#	56503
#	73345
#	92265
#	107271
#	129095
#	149510
#	164400
#	181933
#	198001
#	219711
#	240783
#	254110
#	267813
#	280111
#	294143
#	310503
#
# Disc length: 4377 seconds
#
# Revision: 1
# Processed by: cddbd v1.5.1PL0 Copyright (c) Steve Scherf et al.
# Submitted via: audiograbber 1.81.03
#
DISCID=1e111714
DTITLE=Алла Пугачева - Золотые хиты 2005
DYEAR=2005
DGENRE=Pop
TTITLE0=Снег падает на всех
TTITLE1=Кафешка (дуэт с Галкиным)
TTITLE2=Хочется
TTITLE3=Живи спокойно, страна!
TTITLE4=Исчезнет грусть
TTITLE5=Мадам Брошкина
TTITLE6=Речной трамвайчик
TTITLE7=Позови меня с собой
TTITLE8=Девочка секонд-хенд
TTITLE9=Миллениум
TTITLE10=Голова
TTITLE11=Только не назад
TTITLE12=Непогода
TTITLE13=Ухожу
TTITLE14=Отдыхай
TTITLE15=Заходите гости
TTITLE16=Сумашедшая семейка (дуэт с Сердючкой)
TTITLE17=Холодно (дуэт с Галкиным)
TTITLE18=Будь или не будь (дуэт с Галкиным)
TTITLE19=Это любовь (дуэт с Галкиным)
EXTD=
EXTT0=
EXTT1=
EXTT2=
EXTT3=
EXTT4=
EXTT5=
EXTT6=
EXTT7=
EXTT8=
EXTT9=
EXTT10=
EXTT11=
EXTT12=
EXTT13=
EXTT14=
EXTT15=
EXTT16=
EXTT17=
EXTT18=
EXTT19=
PLAYORDER=
